<svg data-v-d3f97b9e="" xmlns="http://www.w3.org/2000/svg" viewBox="0 0 251.02042770544773 163"><!----><!----><!----><g data-v-d3f97b9e="" id="80b1e806-5575-4b9c-9e80-ee1a7d622025" fill="white" transform="matrix(6.122449456230433,0,0,6.122449456230433,-1.7755094611965347,91.18366999499045)"><path d="M0.50 6.39L0.50 1.94L5.41 1.94L5.41 3.57L2.45 3.57L2.45 5.89L5.00 5.89L5.04 5.91L5.02 5.95L5.02 5.95Q5.00 6.44 5.00 6.52L5.00 6.52L4.72 6.52L4.72 6.54L4.72 6.54Q4.72 6.71 4.69 7.29L4.69 7.29L4.95 7.29L4.95 7.29Q4.95 7.57 4.90 7.57L4.90 7.57L3.10 7.57L3.10 7.91L2.17 7.91L2.17 8.09L2.45 8.09L2.45 8.94L3.38 8.94L3.38 9.09L2.45 9.09L2.45 11.46L2.43 11.58L1.42 11.58L1.42 11.73L0.53 11.73L0.53 11.73Q0.50 11.73 0.50 11.70L0.50 11.70L0.50 11.45L0.52 11.29L1.00 11.29L1.00 11.04L0.50 11.04L0.50 10.10L0.73 10.10L0.73 6.64L1.13 6.64L1.13 6.39L0.50 6.39ZM0.33 8.75L0.33 8.44L0.40 8.44L0.40 8.44Q0.44 8.44 0.44 8.47L0.44 8.47L0.44 8.70L0.44 8.70Q0.44 8.80 0.49 8.80L0.49 8.80L0.55 8.80L0.55 8.80Q0.57 8.80 0.60 8.75L0.60 8.75L0.60 8.47L0.60 8.47Q0.61 8.44 0.64 8.44L0.64 8.44L0.70 8.44L0.70 8.75L0.70 8.75Q0.70 8.89 0.50 8.89L0.50 8.89L0.50 8.89Q0.33 8.87 0.33 8.75L0.33 8.75ZM2.48 8.68L2.48 8.60L2.50 8.60L2.50 8.60Q2.75 8.72 2.80 8.72L2.80 8.72L2.80 8.81L2.50 8.91L2.48 8.91L2.48 8.86L2.48 8.86Q2.48 8.84 2.68 8.76L2.68 8.76L2.68 8.75L2.68 8.75Q2.65 8.75 2.48 8.68L2.48 8.68ZM2.43 8.94L1.54 8.94L1.54 9.09L2.43 9.09L2.43 8.94ZM0.47 9.01L0.47 9.01L0.49 9.01L0.49 9.01Q0.66 9.01 0.66 9.16L0.66 9.16L0.55 9.16L0.55 9.16Q0.55 9.09 0.47 9.09L0.47 9.09L0.47 9.09Q0.44 9.09 0.42 9.14L0.42 9.14L0.42 9.14Q0.66 9.24 0.66 9.28L0.66 9.28L0.66 9.28Q0.66 9.29 0.68 9.32L0.68 9.32L0.68 9.32Q0.68 9.45 0.49 9.47L0.49 9.47L0.49 9.47Q0.30 9.45 0.30 9.30L0.30 9.30L0.42 9.30L0.42 9.30Q0.42 9.37 0.45 9.37L0.45 9.37L0.53 9.37L0.53 9.37Q0.57 9.37 0.57 9.34L0.57 9.34L0.57 9.30L0.57 9.30Q0.32 9.24 0.32 9.17L0.32 9.17L0.32 9.11L0.32 9.11Q0.38 9.01 0.47 9.01ZM0.30 9.58L0.30 9.58L0.36 9.58L0.36 9.58Q0.45 9.58 0.49 9.72L0.49 9.72L0.60 9.58L0.68 9.58L0.68 9.62L0.68 9.62Q0.57 9.78 0.57 9.84L0.57 9.84L0.57 9.84Q0.59 9.84 0.70 10.01L0.70 10.01L0.70 10.04L0.60 10.04L0.60 10.04Q0.59 10.04 0.49 9.90L0.49 9.90L0.49 9.90Q0.42 10.02 0.38 10.04L0.38 10.04L0.29 10.04L0.29 10.04Q0.40 9.83 0.44 9.82L0.44 9.82L0.44 9.82Q0.30 9.62 0.30 9.58ZM7.29 7.57L8.97 1.96L10.62 1.96L10.62 1.96Q10.65 2.10 12.22 7.29L12.22 7.29L12.52 7.29L12.52 10.51L11.84 10.51L11.84 10.76L12.52 10.76L12.52 11.45L10.70 11.45L10.70 9.47L8.48 9.47L8.48 10.32L7.57 10.32L7.57 11.73L5.92 11.73L5.92 11.63L6.05 11.63L6.05 10.32L6.73 10.32L6.73 7.57L7.29 7.57ZM9.78 4.71L9.74 4.71L9.74 4.72L9.74 4.72Q9.53 5.89 8.92 8.40L8.92 8.40L10.45 8.40L10.45 7.29L10.32 7.29L10.32 7.29Q9.78 4.92 9.78 4.71L9.78 4.71ZM5.44 7.57L5.44 7.28L6.73 7.28L6.73 7.57L5.44 7.57ZM10.70 11.73L10.70 11.57L12.89 11.57L12.89 11.73L10.70 11.73ZM12.33 3.57L12.33 1.93L18.07 1.93L18.07 3.57L16.17 3.57L16.17 10.34L17.03 10.34L17.03 10.54L16.17 10.54L16.17 11.29L15.65 11.29L15.65 11.55L16.02 11.55L16.02 11.73L14.27 11.73L14.27 11.73Q14.24 11.73 14.24 11.70L14.24 11.70L14.24 3.57L12.33 3.57ZM16.15 10.34L15.49 10.34L15.49 10.54L16.15 10.54L16.15 10.34ZM22.52 7.57L24.21 1.94L25.85 1.94L25.85 1.94Q25.89 2.08 27.46 7.29L27.46 7.29L27.75 7.29L27.75 10.51L27.08 10.51L27.08 10.76L27.75 10.76L27.75 11.45L25.94 11.45L25.94 9.47L23.71 9.47L23.71 10.31L22.80 10.31L22.80 11.73L21.15 11.73L21.15 11.63L21.28 11.63L21.28 10.31L21.96 10.31L21.96 7.57L22.52 7.57ZM25.01 4.70L24.98 4.70L24.98 4.72L24.98 4.72Q24.77 5.88 24.16 8.39L24.16 8.39L25.69 8.39L25.69 7.29L25.56 7.29L25.56 7.29Q25.01 4.91 25.01 4.70L25.01 4.70ZM22.06 7.08L22.06 7.08L22.21 7.08L22.21 7.08Q22.21 7.14 22.27 7.18L22.27 7.18L22.27 7.18Q22.28 7.12 22.34 7.08L22.34 7.08L22.46 7.08L22.46 7.09L22.46 7.09Q22.34 7.25 22.34 7.27L22.34 7.27L22.34 7.27Q22.37 7.33 22.47 7.47L22.47 7.47L22.47 7.51L22.41 7.51L22.41 7.51Q22.31 7.51 22.27 7.37L22.27 7.37L22.27 7.37Q22.17 7.51 22.16 7.51L22.16 7.51L22.07 7.51L22.07 7.51Q22.04 7.51 22.04 7.47L22.04 7.47L22.04 7.47Q22.06 7.47 22.18 7.29L22.18 7.29L22.18 7.26L22.18 7.26Q22.06 7.09 22.06 7.08ZM20.67 7.57L20.67 7.27L21.96 7.27L21.96 7.57L20.67 7.57ZM27.80 7.59L27.80 7.49L28.15 7.49L28.15 7.57L27.94 7.83L28.14 7.83L28.14 7.83Q28.16 7.84 28.16 7.87L28.16 7.87L28.16 7.90L28.16 7.90Q28.16 7.94 28.14 7.94L28.14 7.94L27.79 7.94L27.79 7.85L28 7.59L27.80 7.59ZM25.28 8.36L25.28 7.92L25.38 7.92L25.38 8.08L25.56 7.92L25.66 7.92L25.66 7.94L25.51 8.10L25.51 8.10Q25.68 8.33 25.68 8.36L25.68 8.36L25.57 8.36L25.57 8.36Q25.56 8.36 25.42 8.18L25.42 8.18L25.42 8.18Q25.40 8.18 25.38 8.23L25.38 8.23L25.38 8.36L25.28 8.36ZM27.84 8.07L27.84 8.07L28.03 8.07L28.03 8.07Q28.18 8.09 28.18 8.22L28.18 8.22L28.14 8.30L28.14 8.30Q28.18 8.35 28.18 8.50L28.18 8.50L28.18 8.51L28.08 8.51L28.08 8.51Q28.07 8.35 28.03 8.35L28.03 8.35L27.92 8.35L27.92 8.51L27.84 8.51L27.84 8.51Q27.80 8.51 27.80 8.48L27.80 8.48L27.80 8.10L27.80 8.10Q27.81 8.07 27.84 8.07ZM28.07 8.16L27.92 8.16L27.92 8.26L28.03 8.26L28.03 8.26Q28.07 8.26 28.07 8.23L28.07 8.23L28.07 8.16ZM27.80 8.64L27.80 8.64L28.12 8.64L28.12 8.64Q28.15 8.65 28.15 8.67L28.15 8.67L28.15 8.71L28.15 8.71Q28.15 8.74 28.12 8.74L28.12 8.74L28.02 8.74L28.02 9.09L27.90 9.09L27.90 8.74L27.80 8.74L27.80 8.74Q27.77 8.74 27.77 8.71L27.77 8.71L27.77 8.67L27.77 8.67Q27.77 8.64 27.80 8.64ZM27.90 9.67L27.77 9.22L27.85 9.22L27.85 9.22Q27.90 9.22 27.95 9.50L27.95 9.50L27.97 9.50L27.97 9.50Q28.05 9.26 28.05 9.22L28.05 9.22L28.16 9.22L28.16 9.22Q28.03 9.67 28 9.67L28 9.67L27.90 9.67ZM23.79 9.75L24.21 9.60L24.21 9.69L24.21 9.69Q24.21 9.71 23.94 9.80L23.94 9.80L23.94 9.82L24.21 9.91L24.21 10.01L23.79 9.86L23.79 9.75ZM21.64 9.80L21.64 9.80L21.70 9.80L21.70 9.80Q21.75 9.80 21.88 10.25L21.88 10.25L21.78 10.25L21.78 10.25Q21.78 10.23 21.75 10.14L21.75 10.14L21.59 10.14L21.59 10.14Q21.58 10.25 21.55 10.25L21.55 10.25L21.46 10.25L21.46 10.25Q21.61 9.80 21.64 9.80ZM27.99 9.80L27.99 9.80L28.03 9.80L28.03 9.80Q28.20 9.80 28.23 10.03L28.23 10.03L28.23 10.03Q28.18 10.26 28.02 10.26L28.02 10.26L28.02 10.26Q27.79 10.22 27.79 10.03L27.79 10.03L27.79 10.03Q27.82 9.80 27.99 9.80ZM27.90 10.01L27.90 10.01L27.90 10.03L27.90 10.03Q27.90 10.12 27.99 10.17L27.99 10.17L28.03 10.17L28.03 10.17Q28.12 10.12 28.12 10.03L28.12 10.03L28.12 10.01L28.12 10.01Q28.10 9.88 28 9.88L28 9.88L28 9.88Q27.90 9.92 27.90 10.01ZM21.68 9.95L21.66 9.95L21.66 9.95Q21.63 10.06 21.63 10.06L21.63 10.06L21.71 10.06L21.68 9.95ZM25.94 11.73L25.94 11.57L28.14 11.57L28.14 11.73L25.94 11.73ZM31.54 1.96L31.54 1.96L31.54 1.96Q33.17 1.96 33.72 3.01L33.72 3.01L33.72 3.01Q34.10 3.80 34.10 4.56L34.10 4.56L34.09 4.56L34.09 4.56Q32.98 4.66 32.57 4.66L32.57 4.66L32.57 4.66Q32.57 4.12 32.23 3.75L32.23 3.75L32.23 3.75Q31.92 3.57 31.65 3.57L31.65 3.57L31.38 3.57L31.38 3.57Q30.68 3.57 30.53 4.11L30.53 4.11L30.53 4.11Q30.50 4.27 30.50 4.35L30.50 4.35L30.50 4.50L30.50 4.50Q30.50 5.26 31.30 5.61L31.30 5.61L31.30 5.61Q31.37 5.67 32.42 6.12L32.42 6.12L32.42 6.12Q32.98 6.38 33.46 6.76L33.46 6.76L33.46 6.77L31.75 6.77L31.75 6.97L34.01 6.97L34.01 7.24L34.30 7.24L34.30 10.21L33.74 10.21L33.74 11.73L29.39 11.73L29.39 10.21L28.36 10.21L28.36 9.18L28.94 9.18L28.94 8.83L28.36 8.83L28.36 8.59L30.35 8.59L30.35 10.21L32.39 10.21L32.39 7.77L30.86 7.77L30.86 6.97L28.97 6.97L28.97 6.77L29.89 6.77L29.89 6.76L29.89 6.76Q28.68 5.96 28.68 4.50L28.68 4.50L28.68 4.37L28.68 4.37Q28.68 3.14 29.44 2.51L29.44 2.51L29.44 2.51Q30.12 1.96 31.54 1.96ZM34.01 6.97L34.01 6.77L34.70 6.77L34.70 6.97L34.01 6.97ZM27.71 9.18L27.71 8.83L28.36 8.83L28.36 9.18L27.71 9.18ZM38.13 1.96L38.13 1.96L38.13 1.96Q39.76 1.96 40.31 3.01L40.31 3.01L40.31 3.01Q40.69 3.80 40.69 4.56L40.69 4.56L40.68 4.56L40.68 4.56Q39.57 4.66 39.16 4.66L39.16 4.66L39.16 4.66Q39.16 4.12 38.82 3.75L38.82 3.75L38.82 3.75Q38.51 3.57 38.24 3.57L38.24 3.57L37.97 3.57L37.97 3.57Q37.27 3.57 37.12 4.11L37.12 4.11L37.12 4.11Q37.08 4.27 37.08 4.35L37.08 4.35L37.08 4.50L37.08 4.50Q37.08 5.26 37.89 5.61L37.89 5.61L37.89 5.61Q37.96 5.67 39.01 6.12L39.01 6.12L39.01 6.12Q39.57 6.38 40.05 6.76L40.05 6.76L40.05 6.77L38.34 6.77L38.34 6.97L40.60 6.97L40.60 7.24L40.89 7.24L40.89 10.21L40.33 10.21L40.33 11.73L35.98 11.73L35.98 10.21L34.95 10.21L34.95 9.18L35.53 9.18L35.53 8.83L34.95 8.83L34.95 8.59L36.94 8.59L36.94 10.21L38.98 10.21L38.98 7.77L37.45 7.77L37.45 6.97L35.56 6.97L35.56 6.77L36.48 6.77L36.48 6.76L36.48 6.76Q35.27 5.96 35.27 4.50L35.27 4.50L35.27 4.37L35.27 4.37Q35.27 3.14 36.03 2.51L36.03 2.51L36.03 2.51Q36.71 1.96 38.13 1.96ZM40.60 6.97L40.60 6.77L41.29 6.77L41.29 6.97L40.60 6.97ZM34.30 9.18L34.30 8.83L34.95 8.83L34.95 9.18L34.30 9.18Z"></path></g><!----><g data-v-d3f97b9e="" id="32fc6a9a-639b-4d18-bfb6-c4a0458edd07" transform="matrix(1.3721813760129982,0,0,1.3721813760129982,57.17699534005297,-23.403380545908448)" stroke="none" fill="white"><path d="M65.104 33.699c-5.012-3.451-10.592-4.811-14.4-3.576V18.705c0-.83-.67-1.5-1.5-1.5s-1.5.67-1.5 1.5v3.303c-1.287-1.191-3.15-2.459-5.51-2.834-4.688-.73-8.652 2.484-8.799 2.605l-1.006.84.695 1.109c.113.182 2.842 4.457 7.551 5.207.488.078.973.113 1.441.113 2.297 0 4.289-.838 5.627-1.586v2.191c-1.9-.109-3.9.105-5.982.752-9.488 2.941-19.355 14.156-18.921 26.167.596 16.402 12.098 26.086 22.977 26.086h.27a17.082 17.082 0 0 0 3.158-.344c1.49.309 2.979.48 4.455.48 4.832 0 9.496-1.656 13.484-4.848 6.213-4.971 10.07-13.184 10.07-21.428 0-13.063-8.469-20.309-12.11-22.819zm-23.996-7.724c-2.051-.328-3.641-1.686-4.566-2.695 1.195-.672 3.125-1.477 5.176-1.145 2.049.326 3.637 1.684 4.566 2.695-1.199.67-3.115 1.469-5.176 1.145zm24.161 49.629c-2.965 2.375-6.367 3.748-9.912 4.088 4.982-3.424 8.906-10.055 8.979-21.135a1.498 1.498 0 0 0-1.49-1.51h-.01c-.822 0-1.492.664-1.5 1.49-.102 15.406-7.988 21.014-15.332 21.121h-.232c-9.445 0-19.443-8.615-19.973-23.193-.385-10.641 8.381-20.582 16.811-23.193 3.32-1.025 9.508-1.77 13.672 4.811a1.5 1.5 0 1 0 2.535-1.605 16.15 16.15 0 0 0-3.131-3.643c2.408.42 5.15 1.566 7.717 3.336 3.252 2.24 10.812 8.707 10.812 20.35-.001 7.356-3.427 14.668-8.946 19.083z"></path></g><!----></svg>