<svg data-v-d3f97b9e="" xmlns="http://www.w3.org/2000/svg" viewBox="0 0 49.78988542472555 60"><!----><!----><!----><!----><g data-v-d3f97b9e="" id="08e87692-5c1d-4091-af70-c86007856037" transform="matrix(0.9147875840086654,0,0,0.9147875840086654,-20.84451099033903,-15.738920313076335)" stroke="none" fill="white"><path d="M65.104 33.699c-5.012-3.451-10.592-4.811-14.4-3.576V18.705c0-.83-.67-1.5-1.5-1.5s-1.5.67-1.5 1.5v3.303c-1.287-1.191-3.15-2.459-5.51-2.834-4.688-.73-8.652 2.484-8.799 2.605l-1.006.84.695 1.109c.113.182 2.842 4.457 7.551 5.207.488.078.973.113 1.441.113 2.297 0 4.289-.838 5.627-1.586v2.191c-1.9-.109-3.9.105-5.982.752-9.488 2.941-19.355 14.156-18.921 26.167.596 16.402 12.098 26.086 22.977 26.086h.27a17.082 17.082 0 0 0 3.158-.344c1.49.309 2.979.48 4.455.48 4.832 0 9.496-1.656 13.484-4.848 6.213-4.971 10.07-13.184 10.07-21.428 0-13.063-8.469-20.309-12.11-22.819zm-23.996-7.724c-2.051-.328-3.641-1.686-4.566-2.695 1.195-.672 3.125-1.477 5.176-1.145 2.049.326 3.637 1.684 4.566 2.695-1.199.67-3.115 1.469-5.176 1.145zm24.161 49.629c-2.965 2.375-6.367 3.748-9.912 4.088 4.982-3.424 8.906-10.055 8.979-21.135a1.498 1.498 0 0 0-1.49-1.51h-.01c-.822 0-1.492.664-1.5 1.49-.102 15.406-7.988 21.014-15.332 21.121h-.232c-9.445 0-19.443-8.615-19.973-23.193-.385-10.641 8.381-20.582 16.811-23.193 3.32-1.025 9.508-1.77 13.672 4.811a1.5 1.5 0 1 0 2.535-1.605 16.15 16.15 0 0 0-3.131-3.643c2.408.42 5.15 1.566 7.717 3.336 3.252 2.24 10.812 8.707 10.812 20.35-.001 7.356-3.427 14.668-8.946 19.083z"></path></g><!----></svg>