<svg data-v-423bf9ae="" xmlns="http://www.w3.org/2000/svg" viewBox="0 0 417 90" class="iconLeft"><!----><!----><!----><g data-v-423bf9ae="" id="823adf01-4743-4625-8dcb-b254606d0231" fill="black" transform="matrix(5.928853821986509,0,0,5.928853821986509,84.07217877584864,-5.573121739826156)"><path d="M9.14 3.75L9.62 3.75L9.62 13.55L9.23 13.55L2.27 4.62L2.27 13.55L1.79 13.55L1.79 3.75L2.18 3.75L9.14 12.68L9.14 3.75ZM18.72 6.29L19.18 6.29L19.18 13.55L18.73 13.55L18.73 11.79L18.73 11.79Q18.40 12.64 17.65 13.12L17.65 13.12L17.65 13.12Q16.91 13.59 15.89 13.59L15.89 13.59L15.89 13.59Q14.48 13.59 13.68 12.81L13.68 12.81L13.68 12.81Q12.88 12.03 12.88 10.56L12.88 10.56L12.88 6.29L13.34 6.29L13.34 10.53L13.34 10.53Q13.34 11.82 14.01 12.49L14.01 12.49L14.01 12.49Q14.67 13.17 15.90 13.17L15.90 13.17L15.90 13.17Q17.21 13.17 17.96 12.37L17.96 12.37L17.96 12.37Q18.72 11.56 18.72 10.21L18.72 10.21L18.72 6.29ZM25.48 12.75L25.72 13.09L25.72 13.09Q25.47 13.33 25.07 13.46L25.07 13.46L25.07 13.46Q24.68 13.59 24.26 13.59L24.26 13.59L24.26 13.59Q23.38 13.59 22.90 13.10L22.90 13.10L22.90 13.10Q22.41 12.60 22.41 11.73L22.41 11.73L22.41 6.69L21.04 6.69L21.04 6.29L22.41 6.29L22.41 4.69L22.88 4.69L22.88 6.29L25.27 6.29L25.27 6.69L22.88 6.69L22.88 11.66L22.88 11.66Q22.88 12.40 23.24 12.80L23.24 12.80L23.24 12.80Q23.60 13.19 24.30 13.19L24.30 13.19L24.30 13.19Q25.00 13.19 25.48 12.75L25.48 12.75ZM28.22 8.04L28.22 8.04Q28.55 7.17 29.27 6.70L29.27 6.70L29.27 6.70Q29.99 6.23 31.05 6.23L31.05 6.23L31.05 6.69L30.93 6.69L30.93 6.69Q29.67 6.69 28.95 7.49L28.95 7.49L28.95 7.49Q28.24 8.29 28.24 9.69L28.24 9.69L28.24 13.55L27.78 13.55L27.78 6.29L28.22 6.29L28.22 8.04ZM33.21 13.55L33.21 6.29L33.67 6.29L33.67 13.55L33.21 13.55ZM33.43 4.38L33.43 4.38Q33.25 4.38 33.11 4.25L33.11 4.25L33.11 4.25Q32.97 4.12 32.97 3.93L32.97 3.93L32.97 3.93Q32.97 3.74 33.10 3.60L33.10 3.60L33.10 3.60Q33.24 3.47 33.43 3.47L33.43 3.47L33.43 3.47Q33.61 3.47 33.75 3.60L33.75 3.60L33.75 3.60Q33.89 3.74 33.89 3.92L33.89 3.92L33.89 3.92Q33.89 4.10 33.75 4.24L33.75 4.24L33.75 4.24Q33.61 4.38 33.43 4.38L33.43 4.38ZM46.98 4.19L41.03 4.19L41.03 8.67L46.35 8.67L46.35 9.09L41.03 9.09L41.03 13.55L40.56 13.55L40.56 3.75L46.98 3.75L46.98 4.19ZM49.14 13.55L49.14 6.29L49.60 6.29L49.60 13.55L49.14 13.55ZM49.36 4.38L49.36 4.38Q49.18 4.38 49.04 4.25L49.04 4.25L49.04 4.25Q48.90 4.12 48.90 3.93L48.90 3.93L48.90 3.93Q48.90 3.74 49.04 3.60L49.04 3.60L49.04 3.60Q49.17 3.47 49.36 3.47L49.36 3.47L49.36 3.47Q49.55 3.47 49.69 3.60L49.69 3.60L49.69 3.60Q49.83 3.74 49.83 3.92L49.83 3.92L49.83 3.92Q49.83 4.10 49.69 4.24L49.69 4.24L49.69 4.24Q49.55 4.38 49.36 4.38L49.36 4.38ZM55.90 12.75L56.14 13.09L56.14 13.09Q55.89 13.33 55.50 13.46L55.50 13.46L55.50 13.46Q55.10 13.59 54.68 13.59L54.68 13.59L54.68 13.59Q53.80 13.59 53.32 13.10L53.32 13.10L53.32 13.10Q52.84 12.60 52.84 11.73L52.84 11.73L52.84 6.69L51.46 6.69L51.46 6.29L52.84 6.29L52.84 4.69L53.30 4.69L53.30 6.29L55.69 6.29L55.69 6.69L53.30 6.69L53.30 11.66L53.30 11.66Q53.30 12.40 53.66 12.80L53.66 12.80L53.66 12.80Q54.03 13.19 54.73 13.19L54.73 13.19L54.73 13.19Q55.43 13.19 55.90 12.75L55.90 12.75Z"></path></g><!----><g data-v-423bf9ae="" id="2f7e7aba-3fa3-4944-8b12-13b7b6eccc71" transform="matrix(1.3721813760129982,0,0,1.3721813760129982,-30.82300465994703,-23.403380545908448)" stroke="none" fill="black"><path d="M65.104 33.699c-5.012-3.451-10.592-4.811-14.4-3.576V18.705c0-.83-.67-1.5-1.5-1.5s-1.5.67-1.5 1.5v3.303c-1.287-1.191-3.15-2.459-5.51-2.834-4.688-.73-8.652 2.484-8.799 2.605l-1.006.84.695 1.109c.113.182 2.842 4.457 7.551 5.207.488.078.973.113 1.441.113 2.297 0 4.289-.838 5.627-1.586v2.191c-1.9-.109-3.9.105-5.982.752-9.488 2.941-19.355 14.156-18.921 26.167.596 16.402 12.098 26.086 22.977 26.086h.27a17.082 17.082 0 0 0 3.158-.344c1.49.309 2.979.48 4.455.48 4.832 0 9.496-1.656 13.484-4.848 6.213-4.971 10.07-13.184 10.07-21.428 0-13.063-8.469-20.309-12.11-22.819zm-23.996-7.724c-2.051-.328-3.641-1.686-4.566-2.695 1.195-.672 3.125-1.477 5.176-1.145 2.049.326 3.637 1.684 4.566 2.695-1.199.67-3.115 1.469-5.176 1.145zm24.161 49.629c-2.965 2.375-6.367 3.748-9.912 4.088 4.982-3.424 8.906-10.055 8.979-21.135a1.498 1.498 0 0 0-1.49-1.51h-.01c-.822 0-1.492.664-1.5 1.49-.102 15.406-7.988 21.014-15.332 21.121h-.232c-9.445 0-19.443-8.615-19.973-23.193-.385-10.641 8.381-20.582 16.811-23.193 3.32-1.025 9.508-1.77 13.672 4.811a1.5 1.5 0 1 0 2.535-1.605 16.15 16.15 0 0 0-3.131-3.643c2.408.42 5.15 1.566 7.717 3.336 3.252 2.24 10.812 8.707 10.812 20.35-.001 7.356-3.427 14.668-8.946 19.083z"></path></g><!----></svg>