<?xml version="1.0" encoding="iso-8859-1"?>
<!-- Generator: Adobe Illustrator 19.0.0, SVG Export Plug-In . SVG Version: 6.00 Build 0)  -->
<svg version="1.1" id="Layer_1" xmlns="http://www.w3.org/2000/svg" xmlns:xlink="http://www.w3.org/1999/xlink" x="0px" y="0px"
	 viewBox="0 0 512 512" style="enable-background:new 0 0 512 512;" xml:space="preserve">
<g>
	<path style="fill:#FF9811;" d="M208.99,272.696H58.147c-7.147,0-13.506-4.555-15.804-11.326
		c-5.94-17.456-8.951-36.119-8.951-55.456c0-73.652,44.94-133.565,100.174-133.565c55.239,0,100.174,59.913,100.174,133.565
		c0,19.348-3.011,38.01-8.946,55.456C222.49,268.141,216.141,272.696,208.99,272.696z"/>
	<path style="fill:#FF9811;" d="M453.859,272.696H303.022c-7.141,0-13.5-4.543-15.804-11.315
		c-5.946-17.435-8.957-36.098-8.957-55.467c0-73.652,44.935-133.565,100.174-133.565s100.174,59.913,100.174,133.565
		c0,19.348-3.011,38.01-8.946,55.456C467.359,268.141,461.01,272.696,453.859,272.696z"/>
</g>
<g>
	<path style="fill:#EE8700;" d="M453.859,272.696c7.152,0,13.5-4.555,15.804-11.326c5.935-17.446,8.946-36.108,8.946-55.456
		c0-73.652-44.935-133.565-100.174-133.565v200.348H453.859z"/>
	<path style="fill:#EE8700;" d="M208.99,272.696c7.152,0,13.5-4.555,15.804-11.326c5.935-17.446,8.946-36.108,8.946-55.456
		c0-73.652-44.935-133.565-100.174-133.565v200.348H208.99z"/>
</g>
<path style="fill:#FFB655;" d="M26.923,306.087l40.717,122.152c2.273,6.815,8.653,11.413,15.837,11.413h100.174
	c7.185,0,13.566-4.598,15.838-11.413l40.717-122.152H26.923z"/>
<path style="fill:#FFA733;" d="M269.758,306.087l40.717,122.152c2.272,6.815,8.652,11.413,15.837,11.413h100.174
	c7.185,0,13.566-4.598,15.838-11.413l40.716-122.152H269.758z"/>
<path style="fill:#FFDAAA;" d="M473.946,339.478h21.358c9.217,0,16.696-7.479,16.696-16.696V256c0-9.217-7.479-16.696-16.696-16.696
	H16.696C7.473,239.304,0,246.783,0,256v66.783c0,9.217,7.473,16.696,16.696,16.696C252.95,339.478,237.094,339.478,473.946,339.478z
	"/>
<path style="fill:#FFC477;" d="M495.304,239.304H256v100.174c51.81,0,107.304,0,217.946,0h21.358
	c9.217,0,16.696-7.479,16.696-16.696V256C512,246.783,504.521,239.304,495.304,239.304z"/>
<g>
</g>
<g>
</g>
<g>
</g>
<g>
</g>
<g>
</g>
<g>
</g>
<g>
</g>
<g>
</g>
<g>
</g>
<g>
</g>
<g>
</g>
<g>
</g>
<g>
</g>
<g>
</g>
<g>
</g>
</svg>
